# xmcd CD database file
#
# Track frame offsets:
#	150
#	23085
#	40447
#	58147
#	86684
#	104681
#	120039
#	149889
#	170160
#	202938
#	233631
#	243482
#	264905
#	289390
#
# Disc length: 4067 seconds
#
# Revision: 0
# Processed by: cddbd v1.5.2PL0 Copyright (c) Steve Scherf et al.
# Submitted via: CDex 1.70beta2
#
DISCID=ce0fe10e
DTITLE=Peter Johannesson and Max Schultz - Johannesson and Schultz
DYEAR=2010
DGENRE=Jazz
TTITLE0=Maria
TTITLE1=Way Back
TTITLE2=Too Simple
TTITLE3=Big McKee
TTITLE4=Timeless
TTITLE5=The Force
TTITLE6=Footloose
TTITLE7=Kling
TTITLE8=Blues For Elvin
TTITLE9=Impressions
TTITLE10=Sixtus
TTITLE11=Sjostedts Tolva
TTITLE12=Maria (Alternative Version)
TTITLE13=Drums For Katinka
EXTD=YEAR: 2010
EXTT0=
EXTT1=
EXTT2=
EXTT3=
EXTT4=
EXTT5=
EXTT6=
EXTT7=
EXTT8=
EXTT9=
EXTT10=
EXTT11=
EXTT12=
EXTT13=
PLAYORDER=
